<svg xmlns="http://www.w3.org/2000/svg" viewBox="0 0 282 183" width="282" height="183" shape-rendering="geometricPrecision"><rect width="100%" height="100%" fill="#FFFFFF"/><path d="M 123.00 27.00 C 120.90 27.17, 118.73 27.37, 116.89 28.00 C 115.06 28.63, 113.21 29.41, 112.00 30.80 C 110.79 32.19, 110.65 34.59, 109.65 36.35 C 108.65 38.11, 107.30 39.72, 106.00 41.36 C 104.70 42.99, 103.36 44.72, 101.84 46.16 C 100.33 47.60, 98.65 48.93, 96.91 50.00 C 95.18 51.07, 93.32 51.83, 91.45 52.55 C 89.57 53.27, 87.60 53.76, 85.67 54.33 C 83.73 54.91, 81.82 55.56, 79.83 56.00 C 77.84 56.44, 75.83 56.83, 73.73 57.00 C 71.62 57.17, 69.31 56.83, 67.21 57.00 C 65.10 57.17, 63.13 58.00, 61.10 58.00 C 59.06 58.00, 57.10 57.17, 54.99 57.00 C 52.89 56.83, 50.59 57.12, 48.47 57.00 C 46.35 56.88, 44.31 56.42, 42.26 56.26 C 40.20 56.09, 36.22 55.73, 36.16 56.00 C 36.10 56.27, 39.93 57.39, 41.89 57.89 C 43.86 58.39, 45.98 58.52, 47.96 59.00 C 49.93 59.48, 51.78 60.28, 53.75 60.75 C 55.73 61.23, 57.74 61.62, 59.83 61.83 C 61.92 62.04, 64.19 61.80, 66.28 62.00 C 68.37 62.20, 70.28 62.83, 72.39 63.00 C 74.49 63.17, 76.76 63.05, 78.91 63.00 C 81.06 62.95, 83.20 62.86, 85.30 62.70 C 87.41 62.53, 89.51 62.36, 91.54 62.00 C 93.56 61.64, 95.51 61.08, 97.46 60.54 C 99.41 60.00, 101.36 59.47, 103.24 58.76 C 105.12 58.05, 106.90 57.10, 108.73 56.27 C 110.56 55.44, 112.44 54.73, 114.22 53.78 C 116.00 52.83, 117.73 51.77, 119.42 50.58 C 121.10 49.40, 122.60 47.78, 124.32 46.68 C 126.04 45.58, 127.74 44.45, 129.73 44.00 C 131.72 43.55, 134.08 44.00, 136.25 44.00 C 138.43 44.00, 140.60 44.00, 142.77 44.00 C 144.95 44.00, 147.16 43.90, 149.29 44.00 C 151.43 44.10, 153.54 44.24, 155.58 44.58 C 157.61 44.91, 159.77 45.03, 161.51 46.00 C 163.25 46.97, 165.58 48.70, 166.00 50.37 C 166.42 52.05, 165.04 54.42, 164.00 56.07 C 162.96 57.71, 161.33 59.02, 159.76 60.24 C 158.18 61.47, 156.29 62.38, 154.56 63.44 C 152.83 64.51, 151.09 65.57, 149.36 66.64 C 147.63 67.70, 145.90 68.77, 144.16 69.84 C 142.43 70.90, 140.70 71.97, 138.97 73.03 C 137.23 74.10, 135.50 75.16, 133.77 76.23 C 132.04 77.30, 130.31 78.36, 128.57 79.43 C 126.84 80.49, 125.11 81.56, 123.38 82.62 C 121.64 83.69, 119.91 84.76, 118.18 85.82 C 116.45 86.88, 114.72 87.97, 112.97 89.00 C 111.23 90.03, 109.46 91.00, 107.70 92.00 C 105.94 93.00, 104.03 93.86, 102.42 95.00 C 100.80 96.14, 99.24 97.34, 98.00 98.86 C 96.76 100.39, 95.42 102.21, 95.00 104.14 C 94.58 106.08, 94.86 108.55, 95.47 110.47 C 96.08 112.39, 97.22 114.38, 98.67 115.67 C 100.11 116.95, 102.35 117.27, 104.16 118.16 C 105.96 119.04, 107.72 120.05, 109.50 121.00 C 111.28 121.95, 113.01 123.01, 114.84 123.84 C 116.67 124.68, 118.64 125.17, 120.47 126.00 C 122.30 126.83, 123.99 127.99, 125.82 128.82 C 127.65 129.66, 129.61 130.17, 131.44 131.00 C 133.27 131.83, 134.99 132.92, 136.80 133.80 C 138.61 134.68, 140.46 135.46, 142.29 136.29 C 144.12 137.12, 145.95 137.95, 147.78 138.78 C 149.61 139.61, 151.46 140.40, 153.27 141.27 C 155.09 142.14, 156.83 143.17, 158.66 144.00 C 160.49 144.83, 162.41 145.46, 164.25 146.25 C 166.10 147.04, 167.90 147.95, 169.74 148.74 C 171.59 149.53, 173.50 150.17, 175.33 151.00 C 177.16 151.83, 178.89 152.89, 180.72 153.72 C 182.55 154.56, 184.42 155.29, 186.30 156.00 C 188.18 156.71, 190.10 157.33, 191.99 158.00 C 193.89 158.67, 195.79 159.33, 197.69 160.00 C 199.58 160.67, 201.48 161.33, 203.38 162.00 C 205.28 162.67, 207.66 163.69, 209.07 164.00 C 210.49 164.31, 212.22 164.55, 211.87 163.87 C 211.52 163.20, 208.60 161.27, 206.97 159.97 C 205.33 158.67, 203.70 157.37, 202.06 156.06 C 200.43 154.76, 198.80 153.46, 197.16 152.16 C 195.53 150.86, 193.94 149.45, 192.26 148.26 C 190.58 147.06, 188.77 146.18, 187.08 145.00 C 185.40 143.82, 183.84 142.33, 182.16 141.16 C 180.47 139.98, 178.64 139.14, 176.96 137.96 C 175.27 136.77, 173.74 135.24, 172.05 134.05 C 170.37 132.87, 168.59 131.92, 166.86 130.86 C 165.12 129.79, 163.36 128.80, 161.66 127.66 C 159.96 126.52, 158.37 125.11, 156.65 124.00 C 154.94 122.89, 153.09 122.11, 151.38 121.00 C 149.66 119.89, 148.06 118.50, 146.36 117.36 C 144.66 116.22, 142.90 115.23, 141.16 114.16 C 139.43 113.10, 137.70 112.03, 135.97 110.97 C 134.23 109.90, 132.03 109.17, 130.77 107.77 C 129.51 106.37, 128.14 104.20, 128.43 102.57 C 128.71 100.94, 130.95 99.35, 132.47 98.00 C 133.99 96.65, 135.82 95.59, 137.53 94.47 C 139.24 93.35, 140.99 92.34, 142.73 91.27 C 144.46 90.21, 146.18 89.12, 147.92 88.08 C 149.66 87.03, 151.42 86.01, 153.17 85.00 C 154.92 83.99, 156.69 83.00, 158.45 82.00 C 160.21 81.00, 162.02 80.12, 163.73 79.00 C 165.44 77.88, 167.01 76.44, 168.71 75.29 C 170.41 74.14, 172.17 73.14, 173.91 72.09 C 175.65 71.04, 177.42 70.07, 179.15 69.00 C 180.88 67.93, 182.67 67.02, 184.30 65.70 C 185.93 64.38, 187.49 62.67, 188.91 61.09 C 190.33 59.50, 191.97 58.00, 192.82 56.18 C 193.67 54.36, 193.96 52.18, 194.00 50.15 C 194.04 48.13, 193.73 45.92, 193.03 44.03 C 192.34 42.14, 191.18 40.35, 189.83 38.83 C 188.48 37.32, 186.66 36.00, 184.93 34.93 C 183.20 33.86, 181.32 33.15, 179.44 32.44 C 177.56 31.73, 175.59 31.23, 173.66 30.66 C 171.72 30.08, 169.81 29.44, 167.82 29.00 C 165.83 28.56, 163.82 28.17, 161.71 28.00 C 159.61 27.83, 157.30 28.17, 155.19 28.00 C 153.09 27.83, 151.19 27.17, 149.09 27.00 C 146.98 26.83, 144.74 27.00, 142.56 27.00 C 140.39 27.00, 138.22 27.00, 136.04 27.00 C 133.87 27.00, 131.70 27.00, 129.52 27.00 C 127.35 27.00, 125.10 26.83, 123.00 27.00 Z M 89.00 2.00 C 88.62 2.16, 88.43 2.78, 88.05 2.95 C 87.67 3.12, 87.17 2.99, 86.72 3.00 C 86.28 3.01, 85.78 2.89, 85.38 3.00 C 84.98 3.11, 84.70 3.52, 84.32 3.68 C 83.94 3.85, 83.47 3.80, 83.10 4.00 C 82.74 4.20, 82.49 4.69, 82.12 4.88 C 81.75 5.07, 81.25 4.94, 80.88 5.12 C 80.51 5.31, 80.26 5.80, 79.89 6.00 C 79.53 6.20, 79.04 6.11, 78.68 6.32 C 78.32 6.53, 78.05 6.95, 77.73 7.27 C 77.41 7.59, 77.10 7.90, 76.78 8.22 C 76.46 8.54, 76.14 8.86, 75.83 9.17 C 75.51 9.49, 75.19 9.81, 74.88 10.12 C 74.56 10.44, 74.24 10.76, 73.92 11.08 C 73.61 11.39, 73.29 11.71, 72.97 12.03 C 72.66 12.34, 72.22 12.61, 72.02 12.98 C 71.82 13.34, 71.95 13.84, 71.78 14.22 C 71.61 14.60, 71.13 14.85, 71.00 15.25 C 70.87 15.64, 71.11 16.19, 71.00 16.59 C 70.89 16.99, 70.50 17.28, 70.34 17.66 C 70.17 18.04, 70.08 18.45, 70.00 18.87 C 69.92 19.28, 70.02 19.77, 69.85 20.15 C 69.68 20.53, 69.14 20.75, 69.00 21.14 C 68.86 21.53, 69.00 22.04, 69.00 22.49 C 69.00 22.94, 69.00 23.39, 69.00 23.83 C 69.00 24.28, 69.00 24.73, 69.00 25.18 C 69.00 25.63, 69.00 26.08, 69.00 26.52 C 69.00 26.97, 69.00 27.42, 69.00 27.87 C 69.00 28.32, 68.93 28.79, 69.00 29.22 C 69.07 29.64, 69.23 30.02, 69.40 30.40 C 69.56 30.78, 69.90 31.08, 70.00 31.49 C 70.10 31.90, 69.86 32.45, 70.00 32.84 C 70.14 33.23, 70.66 33.46, 70.84 33.84 C 71.02 34.21, 70.89 34.71, 71.08 35.08 C 71.27 35.45, 71.80 35.68, 72.00 36.04 C 72.20 36.41, 72.07 36.91, 72.28 37.28 C 72.48 37.64, 72.94 37.90, 73.23 38.23 C 73.51 38.56, 73.80 38.89, 74.00 39.25 C 74.20 39.62, 74.19 40.07, 74.42 40.42 C 74.65 40.78, 75.03 41.11, 75.37 41.37 C 75.71 41.64, 76.09 41.80, 76.46 42.00 C 76.83 42.20, 77.19 42.40, 77.57 42.57 C 77.95 42.74, 78.37 42.80, 78.74 43.00 C 79.10 43.20, 79.39 43.60, 79.76 43.76 C 80.14 43.93, 80.64 43.81, 81.01 44.01 C 81.37 44.21, 81.58 44.79, 81.96 44.96 C 82.34 45.13, 82.84 44.99, 83.29 45.00 C 83.73 45.01, 84.19 45.00, 84.63 45.00 C 85.08 45.00, 85.53 45.00, 85.98 45.00 C 86.43 45.00, 86.88 45.00, 87.32 45.00 C 87.77 45.00, 88.22 45.00, 88.67 45.00 C 89.12 45.00, 89.58 45.04, 90.02 45.00 C 90.45 44.96, 90.88 44.91, 91.26 44.74 C 91.63 44.58, 91.93 44.20, 92.29 44.00 C 92.66 43.80, 93.10 43.78, 93.45 43.55 C 93.80 43.32, 94.06 42.86, 94.40 42.60 C 94.74 42.34, 95.13 42.20, 95.50 42.00 C 95.87 41.80, 96.26 41.66, 96.60 41.40 C 96.94 41.14, 97.23 40.77, 97.55 40.45 C 97.87 40.13, 98.18 39.82, 98.50 39.50 C 98.82 39.18, 99.13 38.87, 99.45 38.55 C 99.77 38.23, 100.14 37.94, 100.40 37.60 C 100.66 37.26, 100.80 36.87, 101.00 36.50 C 101.20 36.13, 101.43 35.78, 101.60 35.40 C 101.76 35.02, 101.80 34.59, 102.00 34.22 C 102.20 33.86, 102.63 33.59, 102.79 33.21 C 102.96 32.83, 102.92 32.36, 103.00 31.95 C 103.08 31.53, 103.12 31.10, 103.28 30.72 C 103.45 30.34, 103.88 30.07, 104.00 29.67 C 104.12 29.27, 103.88 28.72, 104.00 28.32 C 104.12 27.93, 104.55 27.66, 104.72 27.28 C 104.89 26.90, 104.80 26.41, 105.00 26.05 C 105.20 25.68, 105.61 25.40, 105.92 25.08 C 106.23 24.76, 106.55 24.45, 106.87 24.13 C 107.19 23.81, 107.45 23.38, 107.82 23.18 C 108.19 22.98, 108.70 23.13, 109.06 22.94 C 109.43 22.74, 109.66 22.20, 110.02 22.00 C 110.39 21.80, 110.88 21.91, 111.26 21.74 C 111.64 21.57, 111.90 21.12, 112.30 21.00 C 112.69 20.88, 113.19 21.00, 113.64 21.00 C 114.09 21.00, 114.56 21.04, 114.99 21.00 C 115.42 20.96, 115.86 20.93, 116.24 20.76 C 116.62 20.60, 116.87 20.13, 117.26 20.00 C 117.66 19.87, 118.16 20.00, 118.61 20.00 C 119.06 20.00, 119.51 20.00, 119.96 20.00 C 120.40 20.00, 120.85 20.00, 121.30 20.00 C 121.75 20.00, 122.20 20.00, 122.65 20.00 C 123.09 20.00, 123.81 20.21, 123.99 20.00 C 124.18 19.79, 123.96 19.13, 123.76 18.76 C 123.57 18.40, 123.13 18.13, 122.81 17.81 C 122.49 17.49, 122.18 17.18, 121.86 16.86 C 121.54 16.54, 121.23 16.23, 120.91 15.91 C 120.59 15.59, 120.27 15.27, 119.96 14.96 C 119.64 14.64, 119.32 14.32, 119.01 14.01 C 118.69 13.69, 118.37 13.37, 118.05 13.05 C 117.74 12.74, 117.47 12.30, 117.10 12.10 C 116.74 11.90, 116.22 12.06, 115.86 11.86 C 115.49 11.66, 115.22 11.22, 114.91 10.91 C 114.59 10.59, 114.27 10.27, 113.96 9.96 C 113.64 9.64, 113.37 9.20, 113.00 9.00 C 112.64 8.81, 112.13 8.96, 111.76 8.76 C 111.39 8.56, 111.14 8.10, 110.81 7.81 C 110.48 7.52, 110.17 7.20, 109.80 7.00 C 109.43 6.80, 108.99 6.78, 108.61 6.61 C 108.23 6.45, 107.89 6.20, 107.52 6.00 C 107.16 5.80, 106.80 5.59, 106.42 5.42 C 106.04 5.25, 105.61 5.20, 105.25 5.00 C 104.88 4.80, 104.60 4.39, 104.22 4.22 C 103.84 4.06, 103.38 4.08, 102.97 4.00 C 102.56 3.92, 102.11 3.90, 101.73 3.73 C 101.36 3.57, 101.09 3.12, 100.69 3.00 C 100.30 2.88, 99.80 3.00, 99.35 3.00 C 98.90 3.00, 98.39 3.16, 98.00 3.00 C 97.62 2.84, 97.43 2.22, 97.05 2.05 C 96.67 1.88, 96.17 2.01, 95.73 2.00 C 95.28 1.99, 94.83 2.00, 94.38 2.00 C 93.93 2.00, 93.48 2.00, 93.04 2.00 C 92.59 2.00, 92.14 2.00, 91.69 2.00 C 91.24 2.00, 90.79 2.00, 90.35 2.00 C 89.90 2.00, 89.38 1.84, 89.00 2.00 Z " fill="#FE5A01" fill-rule="evenodd"/><path d="M 218.00 73.00 C 216.63 73.17, 215.40 73.67, 214.10 74.00 C 212.81 74.33, 211.47 74.59, 210.21 75.00 C 208.94 75.41, 207.74 75.99, 206.51 76.49 C 205.28 76.99, 204.09 77.57, 202.83 78.00 C 201.57 78.43, 200.16 78.48, 198.95 79.05 C 197.75 79.61, 196.73 80.61, 195.61 81.39 C 194.50 82.17, 193.34 82.83, 192.27 83.73 C 191.21 84.63, 190.24 85.76, 189.22 86.78 C 188.21 87.79, 187.07 88.76, 186.18 89.82 C 185.28 90.89, 184.70 92.09, 183.83 93.17 C 182.97 94.24, 181.81 95.20, 181.00 96.30 C 180.19 97.40, 179.67 98.62, 179.00 99.78 C 178.33 100.94, 177.10 102.30, 177.00 103.27 C 176.90 104.23, 177.62 105.60, 178.41 105.59 C 179.20 105.59, 180.68 104.15, 181.75 103.25 C 182.81 102.35, 183.73 101.10, 184.80 100.20 C 185.86 99.31, 187.02 98.64, 188.14 97.86 C 189.25 97.08, 190.36 96.30, 191.48 95.52 C 192.59 94.74, 193.69 93.94, 194.82 93.18 C 195.94 92.43, 197.01 91.53, 198.22 91.00 C 199.44 90.47, 200.87 90.45, 202.12 90.00 C 203.37 89.55, 204.46 88.72, 205.72 88.28 C 206.97 87.84, 208.34 87.66, 209.65 87.35 C 210.95 87.05, 212.23 86.65, 213.57 86.43 C 214.92 86.20, 216.30 86.07, 217.71 86.00 C 219.11 85.93, 220.58 86.00, 222.02 86.00 C 223.45 86.00, 224.89 86.00, 226.33 86.00 C 227.76 86.00, 229.27 85.83, 230.64 86.00 C 232.00 86.17, 233.23 86.67, 234.53 87.00 C 235.83 87.33, 237.19 87.51, 238.43 88.00 C 239.66 88.49, 240.75 89.34, 241.94 89.94 C 243.13 90.53, 244.41 90.91, 245.57 91.57 C 246.73 92.23, 247.85 93.01, 248.91 93.91 C 249.98 94.81, 250.89 96.06, 251.96 96.96 C 253.02 97.86, 254.35 98.35, 255.30 99.30 C 256.25 100.25, 256.86 101.53, 257.64 102.64 C 258.42 103.75, 259.27 104.84, 260.00 105.97 C 260.73 107.11, 261.50 108.23, 262.00 109.46 C 262.50 110.69, 262.64 112.07, 263.00 113.35 C 263.36 114.64, 263.84 115.88, 264.18 117.18 C 264.51 118.47, 264.86 119.76, 265.00 121.14 C 265.14 122.52, 264.99 124.15, 265.00 125.45 C 265.01 126.76, 265.04 127.66, 265.04 128.96 C 265.04 130.25, 265.17 131.88, 265.00 133.25 C 264.83 134.61, 264.34 135.85, 264.00 137.14 C 263.66 138.44, 263.42 139.77, 262.97 141.03 C 262.53 142.28, 261.88 143.45, 261.34 144.66 C 260.79 145.87, 260.37 147.13, 259.70 148.30 C 259.04 149.46, 258.26 150.57, 257.36 151.64 C 256.47 152.70, 255.26 153.74, 254.32 154.68 C 253.37 155.63, 252.68 156.49, 251.68 157.32 C 250.69 158.15, 249.46 158.88, 248.34 159.66 C 247.23 160.44, 246.14 161.28, 245.00 162.00 C 243.86 162.72, 242.68 163.34, 241.52 164.00 C 240.36 164.66, 239.26 165.47, 238.03 165.97 C 236.80 166.47, 235.45 166.69, 234.14 167.00 C 232.83 167.31, 231.54 167.66, 230.17 167.83 C 228.81 167.99, 227.36 167.97, 225.93 168.00 C 224.51 168.03, 223.06 168.00, 221.62 168.00 C 220.19 168.00, 218.75 168.00, 217.31 168.00 C 215.88 168.00, 214.44 168.00, 213.00 168.00 C 211.57 168.00, 210.13 168.00, 208.69 168.00 C 207.26 168.00, 205.82 168.00, 204.38 168.00 C 202.95 168.00, 201.44 168.17, 200.07 168.00 C 198.70 167.83, 197.47 167.33, 196.18 167.00 C 194.88 166.67, 193.58 166.33, 192.28 166.00 C 190.98 165.67, 188.75 164.66, 188.38 165.00 C 188.02 165.34, 189.23 167.17, 190.07 168.07 C 190.91 168.97, 192.30 169.63, 193.41 170.41 C 194.52 171.19, 195.63 171.99, 196.75 172.75 C 197.87 173.52, 198.92 174.46, 200.13 175.00 C 201.34 175.54, 202.76 175.58, 204.02 176.02 C 205.27 176.46, 206.42 177.16, 207.65 177.65 C 208.88 178.15, 210.13 178.61, 211.40 179.00 C 212.68 179.39, 213.93 179.83, 215.30 180.00 C 216.67 180.17, 218.17 180.00, 219.61 180.00 C 221.05 180.00, 222.48 180.00, 223.92 180.00 C 225.36 180.00, 226.79 180.00, 228.23 180.00 C 229.67 180.00, 231.17 180.17, 232.54 180.00 C 233.91 179.83, 235.14 179.33, 236.44 179.00 C 237.74 178.67, 239.04 178.33, 240.33 178.00 C 241.63 177.67, 242.99 177.47, 244.23 177.00 C 245.47 176.53, 246.60 175.78, 247.80 175.20 C 249.00 174.63, 250.27 174.23, 251.43 173.57 C 252.59 172.91, 253.66 172.01, 254.77 171.23 C 255.88 170.45, 257.05 169.79, 258.11 168.89 C 259.18 167.99, 260.09 166.74, 261.16 165.84 C 262.22 164.94, 263.55 164.45, 264.50 163.50 C 265.45 162.55, 266.06 161.27, 266.84 160.16 C 267.62 159.05, 268.40 157.93, 269.18 156.82 C 269.96 155.70, 270.86 154.64, 271.52 153.48 C 272.19 152.31, 272.61 151.05, 273.16 149.84 C 273.70 148.63, 274.32 147.45, 274.79 146.21 C 275.26 144.97, 275.63 143.68, 276.00 142.40 C 276.37 141.12, 276.67 139.80, 277.00 138.50 C 277.33 137.21, 277.83 135.98, 278.00 134.61 C 278.17 133.24, 278.00 131.73, 278.00 130.30 C 278.00 128.86, 278.00 127.42, 278.00 125.99 C 278.00 124.55, 278.07 123.08, 278.00 121.68 C 277.93 120.27, 277.72 118.92, 277.55 117.55 C 277.39 116.18, 277.31 114.78, 277.00 113.47 C 276.69 112.16, 276.19 110.93, 275.70 109.70 C 275.21 108.46, 274.52 107.32, 274.07 106.07 C 273.62 104.82, 273.51 103.42, 273.00 102.20 C 272.49 100.97, 271.76 99.84, 271.00 98.71 C 270.24 97.59, 269.27 96.56, 268.46 95.46 C 267.64 94.36, 267.01 93.18, 266.12 92.12 C 265.22 91.05, 264.08 90.08, 263.07 89.07 C 262.05 88.05, 261.04 87.04, 260.02 86.02 C 259.00 85.00, 258.06 83.81, 256.97 82.97 C 255.88 82.14, 254.64 81.66, 253.48 81.00 C 252.32 80.34, 251.18 79.61, 250.00 79.00 C 248.81 78.39, 247.59 77.86, 246.36 77.36 C 245.14 76.86, 243.89 76.39, 242.62 76.00 C 241.35 75.61, 240.02 75.33, 238.72 75.00 C 237.42 74.67, 236.13 74.33, 234.83 74.00 C 233.53 73.67, 232.30 73.17, 230.93 73.00 C 229.56 72.83, 228.06 73.00, 226.62 73.00 C 225.18 73.00, 223.75 73.00, 222.31 73.00 C 220.87 73.00, 219.37 72.83, 218.00 73.00 Z M 48.00 73.00 C 46.53 73.19, 45.23 73.77, 43.84 74.16 C 42.45 74.55, 41.03 74.85, 39.68 75.32 C 38.33 75.79, 37.08 76.50, 35.74 77.00 C 34.40 77.50, 32.98 77.81, 31.66 78.34 C 30.33 78.88, 29.03 79.47, 27.79 80.21 C 26.55 80.95, 25.41 81.93, 24.22 82.78 C 23.02 83.64, 21.78 84.38, 20.64 85.36 C 19.50 86.33, 18.46 87.54, 17.36 88.64 C 16.27 89.73, 15.06 90.78, 14.08 91.92 C 13.11 93.06, 12.37 94.30, 11.51 95.49 C 10.65 96.68, 9.69 97.83, 8.93 99.07 C 8.18 100.30, 7.50 101.57, 7.00 102.90 C 6.50 104.24, 6.41 105.75, 5.91 107.09 C 5.41 108.43, 4.48 109.60, 4.00 110.94 C 3.52 112.29, 3.33 113.76, 3.00 115.17 C 2.67 116.57, 2.17 117.91, 2.00 119.39 C 1.83 120.87, 2.00 122.48, 2.00 124.03 C 2.00 125.58, 2.00 127.12, 2.00 128.67 C 2.00 130.22, 1.83 131.83, 2.00 133.31 C 2.17 134.79, 2.67 136.13, 3.00 137.54 C 3.33 138.94, 3.67 140.35, 4.00 141.76 C 4.33 143.17, 4.52 144.64, 5.00 145.99 C 5.48 147.34, 6.24 148.57, 6.86 149.86 C 7.48 151.15, 8.03 152.46, 8.72 153.72 C 9.41 154.98, 10.14 156.23, 11.00 157.42 C 11.86 158.61, 12.91 159.82, 13.87 160.87 C 14.83 161.92, 15.71 162.71, 16.74 163.74 C 17.76 164.76, 18.92 165.92, 20.02 167.02 C 21.11 168.11, 22.11 169.44, 23.30 170.30 C 24.49 171.16, 25.92 171.42, 27.16 172.16 C 28.40 172.90, 29.50 174.00, 30.74 174.74 C 31.98 175.48, 33.28 176.06, 34.60 176.60 C 35.93 177.15, 37.28 177.60, 38.67 178.00 C 40.05 178.40, 41.48 178.67, 42.89 179.00 C 44.30 179.33, 45.64 179.83, 47.12 180.00 C 48.59 180.17, 50.21 180.00, 51.76 180.00 C 53.30 180.00, 54.85 180.00, 56.40 180.00 C 57.94 180.00, 59.49 180.00, 61.03 180.00 C 62.58 180.00, 64.20 180.17, 65.67 180.00 C 67.15 179.83, 68.55 179.47, 69.90 179.00 C 71.25 178.53, 72.46 177.70, 73.80 177.20 C 75.13 176.70, 76.61 176.53, 77.94 176.00 C 79.26 175.47, 80.50 174.73, 81.75 174.00 C 82.99 173.27, 84.19 172.43, 85.39 171.61 C 86.60 170.78, 87.83 170.01, 88.97 169.03 C 90.11 168.06, 91.22 166.78, 92.25 165.75 C 93.27 164.73, 94.09 163.91, 95.12 162.88 C 96.14 161.86, 97.42 160.75, 98.40 159.60 C 99.37 158.46, 100.11 157.22, 100.97 156.03 C 101.83 154.84, 102.69 153.65, 103.54 152.46 C 104.40 151.27, 105.26 150.07, 106.12 148.88 C 106.97 147.69, 107.95 146.55, 108.69 145.31 C 109.43 144.07, 110.08 142.73, 110.56 141.44 C 111.04 140.15, 112.05 138.53, 111.58 137.58 C 111.10 136.62, 109.01 136.31, 107.71 135.71 C 106.41 135.11, 105.12 134.40, 103.78 134.00 C 102.44 133.60, 100.68 132.78, 99.69 133.31 C 98.69 133.85, 98.44 135.89, 97.82 137.18 C 97.20 138.47, 96.69 139.81, 95.95 141.05 C 95.21 142.29, 94.24 143.43, 93.38 144.62 C 92.52 145.81, 91.66 147.00, 90.81 148.19 C 89.95 149.39, 89.21 150.63, 88.23 151.77 C 87.25 152.90, 85.96 153.98, 84.93 155.00 C 83.91 156.02, 83.19 157.08, 82.08 157.92 C 80.98 158.75, 79.55 159.26, 78.31 160.00 C 77.07 160.74, 75.90 161.65, 74.64 162.36 C 73.39 163.06, 72.07 163.61, 70.78 164.22 C 69.48 164.83, 68.23 165.54, 66.88 166.00 C 65.52 166.46, 64.06 166.67, 62.65 167.00 C 61.24 167.33, 59.90 167.83, 58.42 168.00 C 56.95 168.17, 55.26 168.17, 53.79 168.00 C 52.31 167.83, 50.97 167.33, 49.56 167.00 C 48.15 166.67, 46.74 166.33, 45.33 166.00 C 43.93 165.67, 42.45 165.50, 41.11 165.00 C 39.77 164.50, 38.54 163.73, 37.30 163.00 C 36.05 162.27, 34.84 161.46, 33.64 160.64 C 32.43 159.81, 31.21 159.04, 30.06 158.06 C 28.92 157.09, 27.88 155.88, 26.78 154.78 C 25.69 153.69, 24.48 152.64, 23.50 151.50 C 22.53 150.36, 21.68 149.16, 20.93 147.93 C 20.18 146.69, 19.65 145.36, 19.00 144.09 C 18.35 142.81, 17.50 141.62, 17.00 140.28 C 16.50 138.94, 16.33 137.46, 16.00 136.05 C 15.67 134.64, 15.17 133.30, 15.00 131.83 C 14.83 130.35, 15.00 128.73, 15.00 127.19 C 15.00 125.64, 14.83 124.03, 15.00 122.55 C 15.17 121.07, 15.67 119.73, 16.00 118.32 C 16.33 116.91, 16.53 115.45, 17.00 114.10 C 17.47 112.74, 18.30 111.54, 18.80 110.20 C 19.30 108.86, 19.26 107.30, 20.00 106.06 C 20.74 104.82, 22.27 103.91, 23.24 102.76 C 24.21 101.62, 24.84 100.33, 25.81 99.19 C 26.79 98.05, 27.97 96.94, 29.09 95.91 C 30.21 94.88, 31.34 93.86, 32.53 93.00 C 33.72 92.14, 34.97 91.43, 36.24 90.76 C 37.51 90.09, 38.79 89.46, 40.15 89.00 C 41.50 88.54, 42.97 88.33, 44.37 88.00 C 45.78 87.67, 47.19 87.33, 48.60 87.00 C 50.01 86.67, 51.35 86.17, 52.82 86.00 C 54.30 85.83, 55.99 85.83, 57.46 86.00 C 58.94 86.17, 60.28 86.68, 61.69 87.00 C 63.10 87.32, 64.53 87.61, 65.94 87.94 C 67.35 88.27, 68.80 88.50, 70.14 89.00 C 71.48 89.50, 72.68 90.33, 73.97 90.97 C 75.25 91.60, 76.59 92.09, 77.83 92.83 C 79.07 93.57, 80.21 95.21, 81.41 95.41 C 82.60 95.60, 83.79 94.68, 84.98 94.02 C 86.17 93.36, 87.41 92.42, 88.55 91.45 C 89.70 90.47, 91.69 89.24, 91.83 88.17 C 91.98 87.09, 90.39 86.02, 89.42 85.00 C 88.46 83.98, 87.22 82.85, 86.02 82.02 C 84.82 81.19, 83.49 80.67, 82.22 80.00 C 80.95 79.33, 79.70 78.60, 78.41 78.00 C 77.11 77.40, 75.76 76.92, 74.42 76.42 C 73.08 75.92, 71.75 75.40, 70.37 75.00 C 68.99 74.60, 67.55 74.33, 66.14 74.00 C 64.74 73.67, 63.40 73.17, 61.92 73.00 C 60.44 72.83, 58.83 73.00, 57.28 73.00 C 55.73 73.00, 54.19 73.00, 52.64 73.00 C 51.09 73.00, 49.47 72.81, 48.00 73.00 Z M 59.00 57.00 C 59.00 57.00, 59.06 57.00, 59.08 57.00 C 59.11 57.00, 59.14 57.00, 59.17 57.00 C 59.19 57.00, 59.22 57.00, 59.25 57.00 C 59.28 57.00, 59.31 57.00, 59.33 57.00 C 59.36 57.00, 59.39 57.00, 59.42 57.00 C 59.44 57.00, 59.47 57.00, 59.50 57.00 C 59.53 57.00, 59.56 57.00, 59.58 57.00 C 59.61 57.00, 59.64 57.00, 59.67 57.00 C 59.69 57.00, 59.72 57.00, 59.75 57.00 C 59.78 57.00, 59.81 57.00, 59.83 57.00 C 59.86 57.00, 59.89 57.00, 59.92 57.00 C 59.94 57.00, 59.97 57.00, 60.00 57.00 C 60.03 57.00, 60.06 57.00, 60.08 57.00 C 60.11 57.00, 60.14 57.00, 60.17 57.00 C 60.19 57.00, 60.22 57.00, 60.25 57.00 C 60.28 57.00, 60.31 57.00, 60.33 57.00 C 60.36 57.00, 60.39 57.00, 60.42 57.00 C 60.44 57.00, 60.47 57.00, 60.50 57.00 C 60.53 57.00, 60.56 57.00, 60.58 57.00 C 60.61 57.00, 60.64 57.00, 60.67 57.00 C 60.69 57.00, 60.72 57.00, 60.75 57.00 C 60.78 57.00, 60.81 57.00, 60.83 57.00 C 60.86 57.00, 60.89 57.00, 60.92 57.00 C 60.94 57.00, 60.97 57.00, 61.00 57.00 C 61.03 57.00, 61.06 57.00, 61.08 57.00 C 61.11 57.00, 61.14 57.00, 61.17 57.00 C 61.19 57.00, 61.22 57.00, 61.25 57.00 C 61.28 57.00, 61.31 57.00, 61.33 57.00 C 61.36 57.00, 61.39 57.00, 61.42 57.00 C 61.44 57.00, 61.47 57.00, 61.50 57.00 C 61.53 57.00, 61.56 57.00, 61.58 57.00 C 61.61 57.00, 61.64 57.00, 61.67 57.00 C 61.69 57.00, 61.72 57.00, 61.75 57.00 C 61.78 57.00, 61.81 57.00, 61.83 57.00 C 61.86 57.00, 61.89 57.00, 61.92 57.00 C 61.94 57.00, 61.97 57.00, 62.00 57.00 C 62.03 57.00, 62.06 57.00, 62.08 57.00 C 62.11 57.00, 62.14 57.00, 62.17 57.00 C 62.19 57.00, 62.22 57.00, 62.25 57.00 C 62.28 57.00, 62.31 57.00, 62.33 57.00 C 62.36 57.00, 62.39 57.00, 62.42 57.00 C 62.44 57.00, 62.47 57.00, 62.50 57.00 C 62.53 57.00, 62.56 57.00, 62.58 57.00 C 62.61 57.00, 62.64 57.00, 62.67 57.00 C 62.69 57.00, 62.72 57.00, 62.75 57.00 C 62.78 57.00, 62.81 57.00, 62.83 57.00 C 62.86 57.00, 62.89 57.00, 62.92 57.00 C 62.94 57.00, 62.97 57.00, 63.00 57.00 C 63.03 57.00, 63.06 57.00, 63.08 57.00 C 63.11 57.00, 63.14 57.00, 63.17 57.00 C 63.19 57.00, 63.22 57.00, 63.25 57.00 C 63.28 57.00, 63.31 57.00, 63.33 57.00 C 63.36 57.00, 63.39 57.00, 63.42 57.00 C 63.44 57.00, 63.47 57.00, 63.50 57.00 C 63.53 57.00, 63.56 57.00, 63.58 57.00 C 63.61 57.00, 63.64 57.00, 63.67 57.00 C 63.69 57.00, 63.72 57.00, 63.75 57.00 C 63.78 57.00, 63.81 57.00, 63.83 57.00 C 63.86 57.00, 63.89 57.00, 63.92 57.00 C 63.94 57.00, 64.00 57.00, 64.00 57.00 C 64.00 57.00, 63.94 57.00, 63.92 57.00 C 63.89 57.00, 63.86 57.00, 63.83 57.00 C 63.81 57.00, 63.78 57.00, 63.75 57.00 C 63.72 57.00, 63.69 57.00, 63.67 57.00 C 63.64 57.00, 63.61 57.00, 63.58 57.00 C 63.56 57.00, 63.53 57.00, 63.50 57.00 C 63.47 57.00, 63.44 57.00, 63.42 57.00 C 63.39 57.00, 63.36 57.00, 63.33 57.00 C 63.31 57.00, 63.28 57.00, 63.25 57.00 C 63.22 57.00, 63.19 57.00, 63.17 57.00 C 63.14 57.00, 63.11 57.00, 63.08 57.00 C 63.06 57.00, 63.03 57.00, 63.00 57.00 C 62.97 57.00, 62.94 57.00, 62.92 57.00 C 62.89 57.00, 62.86 57.00, 62.83 57.00 C 62.81 57.00, 62.78 57.00, 62.75 57.00 C 62.72 57.00, 62.69 57.00, 62.67 57.00 C 62.64 57.00, 62.61 57.00, 62.58 57.00 C 62.56 57.00, 62.53 57.00, 62.50 57.00 C 62.47 57.00, 62.44 57.00, 62.42 57.00 C 62.39 57.00, 62.36 57.00, 62.33 57.00 C 62.31 57.00, 62.28 57.00, 62.25 57.00 C 62.22 57.00, 62.19 57.00, 62.17 57.00 C 62.14 57.00, 62.11 57.00, 62.08 57.00 C 62.06 57.00, 62.03 57.00, 62.00 57.00 C 61.97 57.00, 61.94 57.00, 61.92 57.00 C 61.89 57.00, 61.86 57.00, 61.83 57.00 C 61.81 57.00, 61.78 57.00, 61.75 57.00 C 61.72 57.00, 61.69 57.00, 61.67 57.00 C 61.64 57.00, 61.61 57.00, 61.58 57.00 C 61.56 57.00, 61.53 57.00, 61.50 57.00 C 61.47 57.00, 61.44 57.00, 61.42 57.00 C 61.39 57.00, 61.36 57.00, 61.33 57.00 C 61.31 57.00, 61.28 57.00, 61.25 57.00 C 61.22 57.00, 61.19 57.00, 61.17 57.00 C 61.14 57.00, 61.11 57.00, 61.08 57.00 C 61.06 57.00, 61.03 57.00, 61.00 57.00 C 60.97 57.00, 60.94 57.00, 60.92 57.00 C 60.89 57.00, 60.86 57.00, 60.83 57.00 C 60.81 57.00, 60.78 57.00, 60.75 57.00 C 60.72 57.00, 60.69 57.00, 60.67 57.00 C 60.64 57.00, 60.61 57.00, 60.58 57.00 C 60.56 57.00, 60.53 57.00, 60.50 57.00 C 60.47 57.00, 60.44 57.00, 60.42 57.00 C 60.39 57.00, 60.36 57.00, 60.33 57.00 C 60.31 57.00, 60.28 57.00, 60.25 57.00 C 60.22 57.00, 60.19 57.00, 60.17 57.00 C 60.14 57.00, 60.11 57.00, 60.08 57.00 C 60.06 57.00, 60.03 57.00, 60.00 57.00 C 59.97 57.00, 59.94 57.00, 59.92 57.00 C 59.89 57.00, 59.86 57.00, 59.83 57.00 C 59.81 57.00, 59.78 57.00, 59.75 57.00 C 59.72 57.00, 59.69 57.00, 59.67 57.00 C 59.64 57.00, 59.61 57.00, 59.58 57.00 C 59.56 57.00, 59.53 57.00, 59.50 57.00 C 59.47 57.00, 59.44 57.00, 59.42 57.00 C 59.39 57.00, 59.36 57.00, 59.33 57.00 C 59.31 57.00, 59.28 57.00, 59.25 57.00 C 59.22 57.00, 59.19 57.00, 59.17 57.00 C 59.14 57.00, 59.11 57.00, 59.08 57.00 C 59.06 57.00, 59.00 57.00, 59.00 57.00 Z M 118.00 21.00 C 118.00 21.00, 118.06 21.00, 118.08 21.00 C 118.11 21.00, 118.14 21.00, 118.17 21.00 C 118.19 21.00, 118.22 21.00, 118.25 21.00 C 118.28 21.00, 118.31 21.00, 118.33 21.00 C 118.36 21.00, 118.39 21.00, 118.42 21.00 C 118.44 21.00, 118.47 21.00, 118.50 21.00 C 118.53 21.00, 118.56 21.00, 118.58 21.00 C 118.61 21.00, 118.64 21.00, 118.67 21.00 C 118.69 21.00, 118.72 21.00, 118.75 21.00 C 118.78 21.00, 118.81 21.00, 118.83 21.00 C 118.86 21.00, 118.89 21.00, 118.92 21.00 C 118.94 21.00, 118.97 21.00, 119.00 21.00 C 119.03 21.00, 119.06 21.00, 119.08 21.00 C 119.11 21.00, 119.14 21.00, 119.17 21.00 C 119.19 21.00, 119.22 21.00, 119.25 21.00 C 119.28 21.00, 119.31 21.00, 119.33 21.00 C 119.36 21.00, 119.39 21.00, 119.42 21.00 C 119.44 21.00, 119.47 21.00, 119.50 21.00 C 119.53 21.00, 119.56 21.00, 119.58 21.00 C 119.61 21.00, 119.64 21.00, 119.67 21.00 C 119.69 21.00, 119.72 21.00, 119.75 21.00 C 119.78 21.00, 119.81 21.00, 119.83 21.00 C 119.86 21.00, 119.89 21.00, 119.92 21.00 C 119.94 21.00, 119.97 21.00, 120.00 21.00 C 120.03 21.00, 120.06 21.00, 120.08 21.00 C 120.11 21.00, 120.14 21.00, 120.17 21.00 C 120.19 21.00, 120.22 21.00, 120.25 21.00 C 120.28 21.00, 120.31 21.00, 120.33 21.00 C 120.36 21.00, 120.39 21.00, 120.42 21.00 C 120.44 21.00, 120.47 21.00, 120.50 21.00 C 120.53 21.00, 120.56 21.00, 120.58 21.00 C 120.61 21.00, 120.64 21.00, 120.67 21.00 C 120.69 21.00, 120.72 21.00, 120.75 21.00 C 120.78 21.00, 120.81 21.00, 120.83 21.00 C 120.86 21.00, 120.89 21.00, 120.92 21.00 C 120.94 21.00, 120.97 21.00, 121.00 21.00 C 121.03 21.00, 121.06 21.00, 121.08 21.00 C 121.11 21.00, 121.14 21.00, 121.17 21.00 C 121.19 21.00, 121.22 21.00, 121.25 21.00 C 121.28 21.00, 121.31 21.00, 121.33 21.00 C 121.36 21.00, 121.39 21.00, 121.42 21.00 C 121.44 21.00, 121.47 21.00, 121.50 21.00 C 121.53 21.00, 121.56 21.00, 121.58 21.00 C 121.61 21.00, 121.64 21.00, 121.67 21.00 C 121.69 21.00, 121.72 21.00, 121.75 21.00 C 121.78 21.00, 121.81 21.00, 121.83 21.00 C 121.86 21.00, 121.89 21.00, 121.92 21.00 C 121.94 21.00, 121.97 21.00, 122.00 21.00 C 122.03 21.00, 122.06 21.00, 122.08 21.00 C 122.11 21.00, 122.14 21.00, 122.17 21.00 C 122.19 21.00, 122.22 21.00, 122.25 21.00 C 122.28 21.00, 122.31 21.00, 122.33 21.00 C 122.36 21.00, 122.39 21.00, 122.42 21.00 C 122.44 21.00, 122.47 21.00, 122.50 21.00 C 122.53 21.00, 122.56 21.00, 122.58 21.00 C 122.61 21.00, 122.64 21.00, 122.67 21.00 C 122.69 21.00, 122.72 21.00, 122.75 21.00 C 122.78 21.00, 122.81 21.00, 122.83 21.00 C 122.86 21.00, 122.89 21.00, 122.92 21.00 C 122.94 21.00, 123.00 21.00, 123.00 21.00 C 123.00 21.00, 122.94 21.00, 122.92 21.00 C 122.89 21.00, 122.86 21.00, 122.83 21.00 C 122.81 21.00, 122.78 21.00, 122.75 21.00 C 122.72 21.00, 122.69 21.00, 122.67 21.00 C 122.64 21.00, 122.61 21.00, 122.58 21.00 C 122.56 21.00, 122.53 21.00, 122.50 21.00 C 122.47 21.00, 122.44 21.00, 122.42 21.00 C 122.39 21.00, 122.36 21.00, 122.33 21.00 C 122.31 21.00, 122.28 21.00, 122.25 21.00 C 122.22 21.00, 122.19 21.00, 122.17 21.00 C 122.14 21.00, 122.11 21.00, 122.08 21.00 C 122.06 21.00, 122.03 21.00, 122.00 21.00 C 121.97 21.00, 121.94 21.00, 121.92 21.00 C 121.89 21.00, 121.86 21.00, 121.83 21.00 C 121.81 21.00, 121.78 21.00, 121.75 21.00 C 121.72 21.00, 121.69 21.00, 121.67 21.00 C 121.64 21.00, 121.61 21.00, 121.58 21.00 C 121.56 21.00, 121.53 21.00, 121.50 21.00 C 121.47 21.00, 121.44 21.00, 121.42 21.00 C 121.39 21.00, 121.36 21.00, 121.33 21.00 C 121.31 21.00, 121.28 21.00, 121.25 21.00 C 121.22 21.00, 121.19 21.00, 121.17 21.00 C 121.14 21.00, 121.11 21.00, 121.08 21.00 C 121.06 21.00, 121.03 21.00, 121.00 21.00 C 120.97 21.00, 120.94 21.00, 120.92 21.00 C 120.89 21.00, 120.86 21.00, 120.83 21.00 C 120.81 21.00, 120.78 21.00, 120.75 21.00 C 120.72 21.00, 120.69 21.00, 120.67 21.00 C 120.64 21.00, 120.61 21.00, 120.58 21.00 C 120.56 21.00, 120.53 21.00, 120.50 21.00 C 120.47 21.00, 120.44 21.00, 120.42 21.00 C 120.39 21.00, 120.36 21.00, 120.33 21.00 C 120.31 21.00, 120.28 21.00, 120.25 21.00 C 120.22 21.00, 120.19 21.00, 120.17 21.00 C 120.14 21.00, 120.11 21.00, 120.08 21.00 C 120.06 21.00, 120.03 21.00, 120.00 21.00 C 119.97 21.00, 119.94 21.00, 119.92 21.00 C 119.89 21.00, 119.86 21.00, 119.83 21.00 C 119.81 21.00, 119.78 21.00, 119.75 21.00 C 119.72 21.00, 119.69 21.00, 119.67 21.00 C 119.64 21.00, 119.61 21.00, 119.58 21.00 C 119.56 21.00, 119.53 21.00, 119.50 21.00 C 119.47 21.00, 119.44 21.00, 119.42 21.00 C 119.39 21.00, 119.36 21.00, 119.33 21.00 C 119.31 21.00, 119.28 21.00, 119.25 21.00 C 119.22 21.00, 119.19 21.00, 119.17 21.00 C 119.14 21.00, 119.11 21.00, 119.08 21.00 C 119.06 21.00, 119.03 21.00, 119.00 21.00 C 118.97 21.00, 118.94 21.00, 118.92 21.00 C 118.89 21.00, 118.86 21.00, 118.83 21.00 C 118.81 21.00, 118.78 21.00, 118.75 21.00 C 118.72 21.00, 118.69 21.00, 118.67 21.00 C 118.64 21.00, 118.61 21.00, 118.58 21.00 C 118.56 21.00, 118.53 21.00, 118.50 21.00 C 118.47 21.00, 118.44 21.00, 118.42 21.00 C 118.39 21.00, 118.36 21.00, 118.33 21.00 C 118.31 21.00, 118.28 21.00, 118.25 21.00 C 118.22 21.00, 118.19 21.00, 118.17 21.00 C 118.14 21.00, 118.11 21.00, 118.08 21.00 C 118.06 21.00, 118.00 21.00, 118.00 21.00 Z " fill="#1B1B1B" fill-rule="evenodd"/></svg>